<svg xmlns="http://www.w3.org/2000/svg" width="960" height="640" viewBox="0 0 960 640" role="img" aria-label="Схема участка реки Есиль в Астане">
  <defs>
    <pattern id="grid" width="42" height="42" patternUnits="userSpaceOnUse"><path d="M42 0H0V42" fill="none" stroke="#18354a" stroke-width="1" opacity=".55"/></pattern>
    <linearGradient id="water" x1="0" y1="0" x2="1" y2="1"><stop stop-color="#075985"/><stop offset="1" stop-color="#0891b2"/></linearGradient>
  </defs>
  <rect width="960" height="640" fill="#102538"/>
  <rect width="960" height="640" fill="url(#grid)"/>
  <path d="M-40 18 145 28 240 112 337 91 430 172 610 130 766 152 990 105" fill="none" stroke="#25455a" stroke-width="16" opacity=".55"/>
  <path d="M-30 538 130 488 272 521 385 470 557 508 688 445 983 479" fill="none" stroke="#25455a" stroke-width="12" opacity=".5"/>
  <path d="M118-20 186 142 156 298 221 446 273 660M455-30 476 135 411 285 518 445 567 660M792-20 736 127 823 305 749 455 777 660" fill="none" stroke="#31516a" stroke-width="7" opacity=".8"/>
  <path d="M-25 262C81 236 120 332 212 303S365 210 457 276 606 360 691 282 810 207 984 258" fill="none" stroke="#063a55" stroke-width="73" stroke-linecap="round"/>
  <path d="M-25 262C81 236 120 332 212 303S365 210 457 276 606 360 691 282 810 207 984 258" fill="none" stroke="url(#water)" stroke-width="54" stroke-linecap="round"/>
  <path d="M-25 262C81 236 120 332 212 303S365 210 457 276 606 360 691 282 810 207 984 258" fill="none" stroke="#67e8f9" stroke-width="2" opacity=".35"/>
  <path d="M285 364 361 344 425 371 405 418 332 438 274 401Z" fill="#14524b" opacity=".67"/>
  <path d="M675 343 766 336 795 388 719 429 661 397Z" fill="#14524b" opacity=".55"/>
  <path d="M332 196 356 354M676 205 704 364" stroke="#b4c4ce" stroke-width="8" opacity=".75"/>
  <text x="78" y="82" fill="#708fa4" font-family="Arial,sans-serif" font-size="17" letter-spacing="3">АСТАНА</text>
  <text x="515" y="257" fill="#a5e7ee" font-family="Arial,sans-serif" font-size="18" letter-spacing="5" transform="rotate(12 515 257)">ЕСІЛ</text>
  <text x="264" y="466" fill="#9ac2b6" font-family="Arial,sans-serif" font-size="14" letter-spacing="2">ЦЕНТРАЛЬНЫЙ ПАРК</text>
  <text x="684" y="457" fill="#9ac2b6" font-family="Arial,sans-serif" font-size="14" letter-spacing="2">ТРИАТЛОН ПАРК</text>
  <text x="746" y="93" fill="#708fa4" font-family="Arial,sans-serif" font-size="12">СХЕМА УЧАСТКА</text>
</svg>
